# xmcd
#
# Track frame offsets: 
#        150
#        13042
#        23750
#        36425
#        48372
#        61065
#        72512
#        87290
#        98852
#        110667
#        121197
#        132525
#
# Disc length: 1899 seconds
#
# Revision: 0
# Processed by: cddbd v1.5.2PL0 Copyright (c) Steve Scherf et al.
# Submitted via: ExactAudioCopy v0.99pb4
#
DISCID=a307690c
DTITLE=Ben E. King - Seven Letters
DYEAR=1964
DGENRE=Soul
TTITLE0=Seven Letters
TTITLE1=River Of Tears
TTITLE2=I'm Standing By
TTITLE3=Jamaica
TTITLE4=Down Home
TTITLE5=Si Senor
TTITLE6=It's All Over
TTITLE7=Let The Water Run Down
TTITLE8=This Is My Dream
TTITLE9=It's No Good For Me
TTITLE10=In The Middle Of The Night
TTITLE11=Don't Drive Me Away
EXTD=
EXTT0=
EXTT1=
EXTT2=
EXTT3=
EXTT4=
EXTT5=
EXTT6=
EXTT7=
EXTT8=
EXTT9=
EXTT10=
EXTT11=
PLAYORDER=
